<svg id="red-grey" xmlns="http://www.w3.org/2000/svg" viewBox="0 0 1792.829 659.771"><defs><style>.cls-1{fill:#ddd;}.cls-2{fill:#5e0000;}</style></defs><title>vyhub_logo_v2_red_grey_on_trans</title><path class="cls-1" d="M990.827,571.256H926.713V347.8H682.88V571.256H619.1V87.815H682.88V295.668H926.713V87.815h64.114Z"/><path class="cls-1" d="M1403.787,87.815V416.528q-.334,68.4-43.02,111.9T1245,577.232l-16.941.664q-79.4,0-126.567-42.832t-47.836-117.872V87.815h63.117V415.2q0,52.467,28.9,81.514t82.385,29.053q54.142,0,82.883-28.887t28.734-81.348V87.815Z"/><path class="cls-1" d="M1463.623,571.256V87.815h158.125q78.731,0,118.428,32.539t39.7,96.29q0,33.867-19.268,59.932t-52.487,40.342q39.195,10.957,61.955,41.67t22.755,73.213q0,65.081-42.188,102.266t-119.259,37.188ZM1527.4,294.008h96.337q41.856,0,66.938-20.96t25.081-56.9q0-39.93-23.254-58.064t-70.758-18.137H1527.4Zm0,51.133V519.127H1632.71q44.511,0,70.26-23.076t25.745-63.584q0-87.322-95.009-87.325Z"/><polygon class="cls-2" points="619.099 571.255 619.099 87.815 443.632 571.255 619.099 571.255"/><polygon class="cls-2" points="368.316 659.771 544.275 176.331 454.432 176.331 278.476 659.771 368.316 659.771"/><polygon class="cls-2" points="433.289 483.44 609.246 0 519.405 0 343.446 483.44 433.289 483.44"/><polygon class="cls-2" points="267.673 571.255 443.632 87.815 353.788 87.815 177.832 571.255 267.673 571.255"/><polygon class="cls-2" points="175.957 571.255 0 87.815 89.841 87.815 265.8 571.255 175.957 571.255"/></svg>